<svg width="48" height="49" viewBox="0 0 48 49" fill="none" xmlns="http://www.w3.org/2000/svg">
<path d="M36.062 33.734L44.628 42.298L41.798 45.128L33.234 36.562C30.0475 39.1164 26.084 40.5058 22 40.5C12.064 40.5 4 32.436 4 22.5C4 12.564 12.064 4.5 22 4.5C31.936 4.5 40 12.564 40 22.5C40.0058 26.584 38.6164 30.5475 36.062 33.734ZM32.05 32.25C34.5882 29.6398 36.0057 26.1409 36 22.5C36 14.766 29.734 8.5 22 8.5C14.266 8.5 8 14.766 8 22.5C8 30.234 14.266 36.5 22 36.5C25.6409 36.5057 29.1398 35.0882 31.75 32.55L32.05 32.25Z" fill="white"/>
</svg>
